<?xml version="1.0" standalone="no"?><!DOCTYPE svg PUBLIC "-//W3C//DTD SVG 1.1//EN" "http://www.w3.org/Graphics/SVG/1.1/DTD/svg11.dtd"><svg t="1702716948666" class="icon" viewBox="0 0 1024 1024" version="1.1" xmlns="http://www.w3.org/2000/svg" p-id="10645" xmlns:xlink="http://www.w3.org/1999/xlink" width="200" height="200"><path d="M811.272038 156.318208l-595.873246 0c-46.818305 0-85.124749 38.306444-85.124749 85.124749l0 535.616884c0 46.818305 38.306444 85.124749 85.124749 85.124749l595.873246 0c46.818305 0 85.124749-38.306444 85.124749-85.124749l0-535.616884C896.396787 194.624652 858.090343 156.318208 811.272038 156.318208zM318.595129 255.961626c42.952254 0 77.771271 34.819017 77.771271 77.771271s-34.819017 77.771271-77.771271 77.771271-77.771271-34.819017-77.771271-77.771271S275.642874 255.961626 318.595129 255.961626zM215.398792 734.497467l148.9678-197.609637 106.405425 127.687124 148.968823-191.530175 191.530175 261.45371L215.398792 734.49849z" fill="#8a8a8a" p-id="10646"></path></svg>